<svg width="55" height="55" viewBox="0 0 55 55" fill="none" xmlns="http://www.w3.org/2000/svg">
<rect x="7" y="7" width="46" height="46" rx="8" fill="white" stroke="black" stroke-width="4"/>
<rect x="2" y="2" width="46" height="46" rx="8" fill="white" stroke="black" stroke-width="4"/>
<g clip-path="url(#clip0_108_249)">
<path d="M38.3335 8.33331H11.6668C9.8335 8.33331 8.35016 9.83331 8.35016 11.6666L8.3335 41.6666L15.0002 35H38.3335C40.1668 35 41.6668 33.5 41.6668 31.6666V11.6666C41.6668 9.83331 40.1668 8.33331 38.3335 8.33331ZM16.6668 20H33.3335C34.2502 20 35.0002 20.75 35.0002 21.6666C35.0002 22.5833 34.2502 23.3333 33.3335 23.3333H16.6668C15.7502 23.3333 15.0002 22.5833 15.0002 21.6666C15.0002 20.75 15.7502 20 16.6668 20ZM26.6668 28.3333H16.6668C15.7502 28.3333 15.0002 27.5833 15.0002 26.6666C15.0002 25.75 15.7502 25 16.6668 25H26.6668C27.5835 25 28.3335 25.75 28.3335 26.6666C28.3335 27.5833 27.5835 28.3333 26.6668 28.3333ZM33.3335 18.3333H16.6668C15.7502 18.3333 15.0002 17.5833 15.0002 16.6666C15.0002 15.75 15.7502 15 16.6668 15H33.3335C34.2502 15 35.0002 15.75 35.0002 16.6666C35.0002 17.5833 34.2502 18.3333 33.3335 18.3333Z" fill="black"/>
</g>
<defs>
<clipPath id="clip0_108_249">
<rect width="40" height="40" fill="white" transform="translate(5 5)"/>
</clipPath>
</defs>
</svg>
