<svg width="55" height="55" viewBox="0 0 55 55" fill="none" xmlns="http://www.w3.org/2000/svg">
<rect x="7" y="7" width="46" height="46" rx="8" fill="white" stroke="black" stroke-width="4"/>
<rect x="2" y="2" width="46" height="46" rx="8" fill="white" stroke="black" stroke-width="4"/>
<g clip-path="url(#clip0_202_199)">
<path d="M28.3333 26.0833C32.8166 24.5 35.8333 19.8333 34.8 14.6167C34.0333 10.8 30.9833 7.7 27.1666 6.9C20.7166 5.53333 15 10.4333 15 16.6667C15 21.0167 17.7833 24.7167 21.6666 26.0833L21.6666 33.3333L18.3333 33.3333C16.5 33.3333 15 34.8333 15 36.6667C15 38.5 16.5 40 18.3333 40L21.6666 40C21.6666 41.8333 23.1666 43.3333 25 43.3333C26.8333 43.3333 28.3333 41.8333 28.3333 40L28.3333 26.0833ZM21.6666 16.6667C21.6666 14.8333 23.1666 13.3333 25 13.3333C26.8333 13.3333 28.3333 14.8333 28.3333 16.6667C28.3333 18.5 26.8333 20 25 20C23.1666 20 21.6666 18.5 21.6666 16.6667Z" fill="black"/>
</g>
<defs>
<clipPath id="clip0_202_199">
<rect width="40" height="40" fill="white" transform="translate(45 5) rotate(90)"/>
</clipPath>
</defs>
</svg>
