<svg width="55" height="55" viewBox="0 0 55 55" fill="none" xmlns="http://www.w3.org/2000/svg">
<rect x="7" y="7" width="46" height="46" rx="8" fill="white" stroke="black" stroke-width="4"/>
<rect x="2" y="2" width="46" height="46" rx="8" fill="white" stroke="black" stroke-width="4"/>
<g clip-path="url(#clip0_112_220)">
<path d="M36.6665 18.3333H33.6498C32.8998 17.0333 31.8665 15.9166 30.6165 15.0666L32.1665 13.5166C32.8165 12.8666 32.8165 11.8166 32.1665 11.1666C31.5165 10.5166 30.4665 10.5166 29.8165 11.1666L27.3665 13.6166C26.5998 13.4333 25.8165 13.3333 24.9998 13.3333C24.1832 13.3333 23.3998 13.4333 22.6498 13.6166L20.1832 11.1666C19.5332 10.5166 18.4832 10.5166 17.8332 11.1666C17.1832 11.8166 17.1832 12.8666 17.8332 13.5166L19.3665 15.0666C18.1332 15.9166 17.0998 17.0333 16.3498 18.3333H13.3332C12.4165 18.3333 11.6665 19.0833 11.6665 20C11.6665 20.9166 12.4165 21.6666 13.3332 21.6666H15.1498C15.0665 22.2166 14.9998 22.7666 14.9998 23.3333V25H13.3332C12.4165 25 11.6665 25.75 11.6665 26.6666C11.6665 27.5833 12.4165 28.3333 13.3332 28.3333H14.9998V30C14.9998 30.5666 15.0665 31.1166 15.1498 31.6666H13.3332C12.4165 31.6666 11.6665 32.4166 11.6665 33.3333C11.6665 34.25 12.4165 35 13.3332 35H16.3498C18.0832 37.9833 21.2998 40 24.9998 40C28.6998 40 31.9165 37.9833 33.6498 35H36.6665C37.5832 35 38.3332 34.25 38.3332 33.3333C38.3332 32.4166 37.5832 31.6666 36.6665 31.6666H34.8498C34.9332 31.1166 34.9998 30.5666 34.9998 30V28.3333H36.6665C37.5832 28.3333 38.3332 27.5833 38.3332 26.6666C38.3332 25.75 37.5832 25 36.6665 25H34.9998V23.3333C34.9998 22.7666 34.9332 22.2166 34.8498 21.6666H36.6665C37.5832 21.6666 38.3332 20.9166 38.3332 20C38.3332 19.0833 37.5832 18.3333 36.6665 18.3333ZM26.6665 31.6666H23.3332C22.4165 31.6666 21.6665 30.9166 21.6665 30C21.6665 29.0833 22.4165 28.3333 23.3332 28.3333H26.6665C27.5832 28.3333 28.3332 29.0833 28.3332 30C28.3332 30.9166 27.5832 31.6666 26.6665 31.6666ZM26.6665 25H23.3332C22.4165 25 21.6665 24.25 21.6665 23.3333C21.6665 22.4166 22.4165 21.6666 23.3332 21.6666H26.6665C27.5832 21.6666 28.3332 22.4166 28.3332 23.3333C28.3332 24.25 27.5832 25 26.6665 25Z" fill="black"/>
</g>
<defs>
<clipPath id="clip0_112_220">
<rect width="40" height="40" fill="white" transform="translate(5 5)"/>
</clipPath>
</defs>
</svg>
