<svg width="55" height="55" viewBox="0 0 55 55" fill="none" xmlns="http://www.w3.org/2000/svg">
<rect x="7" y="7" width="46" height="46" rx="8" fill="white" stroke="black" stroke-width="4"/>
<rect x="2" y="2" width="46" height="46" rx="8" fill="white" stroke="black" stroke-width="4"/>
<g clip-path="url(#clip0_107_220)">
<path d="M19.5001 31.5L13.0001 25L19.5001 18.5C20.1501 17.85 20.1501 16.8166 19.5001 16.1666C18.8501 15.5166 17.8168 15.5166 17.1668 16.1666L9.5168 23.8166C8.8668 24.4666 8.8668 25.5166 9.5168 26.1666L17.1668 33.8333C17.8168 34.4833 18.8501 34.4833 19.5001 33.8333C20.1501 33.1833 20.1501 32.15 19.5001 31.5ZM30.5001 31.5L37.0001 25L30.5001 18.5C29.8501 17.85 29.8501 16.8166 30.5001 16.1666C31.1501 15.5166 32.1835 15.5166 32.8335 16.1666L40.4835 23.8166C41.1335 24.4666 41.1335 25.5166 40.4835 26.1666L32.8335 33.8333C32.1835 34.4833 31.1501 34.4833 30.5001 33.8333C29.8501 33.1833 29.8501 32.15 30.5001 31.5Z" fill="black"/>
</g>
<defs>
<clipPath id="clip0_107_220">
<rect width="40" height="40" fill="white" transform="translate(5 5)"/>
</clipPath>
</defs>
</svg>
