<svg width="55" height="55" viewBox="0 0 55 55" fill="none" xmlns="http://www.w3.org/2000/svg">
<rect x="7" y="7" width="46" height="46" rx="8" fill="white" stroke="black" stroke-width="4"/>
<rect x="2" y="2" width="46" height="46" rx="8" fill="white" stroke="black" stroke-width="4"/>
<g clip-path="url(#clip0_108_269)">
<path d="M23.4875 10.8334V29.45L15.3542 21.3167C14.7042 20.6667 13.6375 20.6667 12.9875 21.3167C12.3375 21.9667 12.3375 23.0167 12.9875 23.6667L23.9708 34.65C24.6208 35.3 25.6708 35.3 26.3208 34.65L37.3042 23.6667C37.9542 23.0167 37.9542 21.9667 37.3042 21.3167C36.6542 20.6667 35.6042 20.6667 34.9542 21.3167L26.8208 29.45V10.8334C26.8208 9.91669 26.0708 9.16669 25.1542 9.16669C24.2375 9.16669 23.4875 9.91669 23.4875 10.8334Z" fill="black"/>
<path d="M15.154 37.9167H35.154C36.0706 37.9167 36.8206 38.6667 36.8206 39.5834C36.8206 40.5 36.0706 41.25 35.154 41.25H15.154C14.2373 41.25 13.4873 40.5 13.4873 39.5834C13.4873 38.6667 14.2373 37.9167 15.154 37.9167Z" fill="black"/>
</g>
<defs>
<clipPath id="clip0_108_269">
<rect width="40" height="40" fill="white" transform="translate(5 5)"/>
</clipPath>
</defs>
</svg>
