<svg width="55" height="55" viewBox="0 0 55 55" fill="none" xmlns="http://www.w3.org/2000/svg">
<rect x="7" y="7" width="46" height="46" rx="8" fill="white" stroke="black" stroke-width="4"/>
<rect width="50" height="50" rx="10" fill="black"/>
<path d="M25.772 22.5052V27.9183H33.4858C32.4771 31.1979 29.7359 33.5453 25.772 33.5453C21.0517 33.5453 17.2253 29.7189 17.2253 25C17.2253 20.2811 21.0517 16.4546 25.772 16.4546C27.8942 16.4546 29.8322 17.2324 31.3268 18.5131L35.3133 14.5266C32.7959 12.233 29.4469 10.8333 25.772 10.8333C17.9464 10.8333 11.6025 17.1757 11.6025 25C11.6025 32.8242 17.9464 39.1666 25.772 39.1666C37.6664 39.1666 40.2915 28.0458 39.1255 22.5236L25.772 22.5052Z" fill="white"/>
</svg>
