<svg width="55" height="55" viewBox="0 0 55 55" fill="none" xmlns="http://www.w3.org/2000/svg">
<rect x="7" y="7" width="46" height="46" rx="8" fill="white" stroke="black" stroke-width="4"/>
<rect x="2" y="2" width="46" height="46" rx="8" fill="white" stroke="black" stroke-width="4"/>
<path d="M28.12 17.2C28.12 16.56 27.7733 15.9867 27.08 15.48C26.4133 14.9733 25.7333 14.72 25.04 14.72C24.3467 14.72 23.7067 14.88 23.12 15.2C22.5333 15.4933 22.1067 15.8533 21.84 16.28C21.0933 17.3467 20.52 17.88 20.12 17.88C18.9733 17.88 18.4 17.32 18.4 16.2C18.4 15.1867 19.1067 14.16 20.52 13.12C21.9333 12.0533 23.4133 11.52 24.96 11.52C27.1467 11.52 28.88 12.4133 30.16 14.2C30.8533 15.1867 31.2 16.1867 31.2 17.2C31.2 18.96 30.48 20.6533 29.04 22.28C28.4267 22.9733 27.8133 23.6267 27.2 24.24C25.7333 25.7067 25 26.68 25 27.16C25 27.64 25.1867 28.1733 25.56 28.76C25.9067 29.3467 26.08 29.7467 26.08 29.96C26.08 30.1733 26.0133 30.4133 25.88 30.68C25.56 31.16 25.0933 31.4 24.48 31.4C23.8933 31.4 23.2933 31 22.68 30.2C22.0667 29.3733 21.76 28.4667 21.76 27.48C21.76 25.7467 22.4133 24.1733 23.72 22.76C24.3333 22.0933 24.9067 21.5333 25.44 21.08C27.2267 19.4 28.12 18.1067 28.12 17.2ZM22.72 36.64C22.72 36.16 22.8933 35.72 23.24 35.32C23.6133 34.92 24.12 34.72 24.76 34.72C25.4 34.72 25.8533 34.84 26.12 35.08C26.4133 35.32 26.56 35.84 26.56 36.64C26.56 38.0533 25.92 38.76 24.64 38.76C24.16 38.76 23.72 38.52 23.32 38.04C22.92 37.56 22.72 37.0933 22.72 36.64Z" fill="black"/>
</svg>
