<svg width="55" height="55" viewBox="0 0 55 55" fill="none" xmlns="http://www.w3.org/2000/svg">
<rect x="7" y="7" width="46" height="46" rx="8" fill="white" stroke="black" stroke-width="4"/>
<rect width="50" height="50" rx="10" fill="black"/>
<g clip-path="url(#clip0_105_47)">
<path d="M38.3335 15H34.7002C34.8835 14.4833 35.0002 13.9166 35.0002 13.3333C35.0002 10.5666 32.7668 8.33331 30.0002 8.33331C28.2502 8.33331 26.7335 9.23331 25.8335 10.5833L25.0002 11.7L24.1668 10.5666C23.2668 9.23331 21.7502 8.33331 20.0002 8.33331C17.2335 8.33331 15.0002 10.5666 15.0002 13.3333C15.0002 13.9166 15.1168 14.4833 15.3002 15H11.6668C9.81683 15 8.35016 16.4833 8.35016 18.3333L8.3335 36.6666C8.3335 38.5166 9.81683 40 11.6668 40H38.3335C40.1835 40 41.6668 38.5166 41.6668 36.6666V18.3333C41.6668 16.4833 40.1835 15 38.3335 15ZM30.0002 11.6666C30.9168 11.6666 31.6668 12.4166 31.6668 13.3333C31.6668 14.25 30.9168 15 30.0002 15C29.0835 15 28.3335 14.25 28.3335 13.3333C28.3335 12.4166 29.0835 11.6666 30.0002 11.6666ZM20.0002 11.6666C20.9168 11.6666 21.6668 12.4166 21.6668 13.3333C21.6668 14.25 20.9168 15 20.0002 15C19.0835 15 18.3335 14.25 18.3335 13.3333C18.3335 12.4166 19.0835 11.6666 20.0002 11.6666ZM38.3335 36.6666H11.6668V33.3333H38.3335V36.6666ZM38.3335 28.3333H11.6668V20C11.6668 19.0833 12.4168 18.3333 13.3335 18.3333H20.1335L17.6668 21.7C17.1168 22.45 17.2835 23.5 18.0335 24.0333C18.7668 24.5666 19.8168 24.4 20.3502 23.6666L25.0002 17.3333L29.6502 23.6666C30.1835 24.4 31.2335 24.5666 31.9668 24.0333C32.7168 23.5 32.8835 22.45 32.3335 21.7L29.8668 18.3333H36.6668C37.5835 18.3333 38.3335 19.0833 38.3335 20V28.3333Z" fill="white"/>
</g>
<defs>
<clipPath id="clip0_105_47">
<rect width="40" height="40" fill="white" transform="translate(5 5)"/>
</clipPath>
</defs>
</svg>
