<svg width="55" height="55" viewBox="0 0 55 55" fill="none" xmlns="http://www.w3.org/2000/svg">
<rect x="7" y="7" width="46" height="46" rx="8" fill="white" stroke="black" stroke-width="4"/>
<rect x="2" y="2" width="46" height="46" rx="8" fill="white" stroke="black" stroke-width="4"/>
<g clip-path="url(#clip0_215_212)">
<path d="M24.6668 23.1667C20.8835 22.1833 19.6668 21.1667 19.6668 19.5833C19.6668 17.7667 21.3502 16.5 24.1668 16.5C26.5335 16.5 27.7168 17.4 28.1502 18.8333C28.3502 19.5 28.9002 20 29.6002 20H30.1002C31.2002 20 31.9835 18.9167 31.6002 17.8833C30.9002 15.9167 29.2668 14.2833 26.6668 13.65V12.5C26.6668 11.1167 25.5502 10 24.1668 10C22.7835 10 21.6668 11.1167 21.6668 12.5V13.6C18.4335 14.3 15.8335 16.4 15.8335 19.6167C15.8335 23.4667 19.0168 25.3833 23.6668 26.5C27.8335 27.5 28.6668 28.9667 28.6668 30.5167C28.6668 31.6667 27.8502 33.5 24.1668 33.5C21.4168 33.5 20.0002 32.5167 19.4502 31.1167C19.2002 30.4667 18.6335 30 17.9502 30H17.4835C16.3668 30 15.5835 31.1333 16.0002 32.1667C16.9502 34.4833 19.1668 35.85 21.6668 36.3833V37.5C21.6668 38.8833 22.7835 40 24.1668 40C25.5502 40 26.6668 38.8833 26.6668 37.5V36.4167C29.9168 35.8 32.5002 33.9167 32.5002 30.5C32.5002 25.7667 28.4502 24.15 24.6668 23.1667Z" fill="black"/>
</g>
<defs>
<clipPath id="clip0_215_212">
<rect width="40" height="40" fill="white" transform="translate(5 5)"/>
</clipPath>
</defs>
</svg>
