<svg width="55" height="55" viewBox="0 0 55 55" fill="none" xmlns="http://www.w3.org/2000/svg">
<rect x="7" y="7" width="46" height="46" rx="8" fill="white" stroke="black" stroke-width="4"/>
<rect width="50" height="50" rx="10" fill="black"/>
<path d="M31.0828 13.4252C33.4135 13.251 35.7505 13.1375 38.0742 13C38.4111 14.1458 38.0825 14.6932 36.9642 14.9246C35.7473 15.1767 35.7512 15.1757 35.7512 16.4017C35.7512 22.9879 35.7441 29.5721 35.7602 36.1584C35.7625 36.6167 35.6361 36.8981 35.2007 37.0356C34.4192 37.2831 33.6528 37.6024 32.8553 37.7697C31.5788 38.0355 30.4562 37.6879 29.6908 36.5925C28.6344 35.0823 27.6062 33.5538 26.6024 32.0092C24.2695 28.4182 21.9571 24.809 19.6379 21.2088C19.5875 21.1309 19.5336 21.0585 19.4007 20.8821C19.3732 21.1273 19.3425 21.277 19.3425 21.4237C19.3402 25.9062 19.3428 30.3913 19.3291 34.8738C19.3268 35.2702 19.4566 35.4271 19.8393 35.5004C20.6987 35.6654 21.5516 35.872 22.3996 36.0599C22.2964 36.9903 21.7774 37.5713 20.824 37.7294C20.1251 37.844 19.4129 37.8582 18.7025 37.8995C16.9837 38.0026 15.2582 38.0779 13.5417 38.1994C13.0422 38.236 12.9422 38.0299 13.027 37.622C13.1324 37.1132 13.3901 36.7434 13.9401 36.6104C14.4809 36.4798 15.0152 36.3096 15.5514 36.1584V16.8359C14.7356 16.7648 13.9385 16.6942 13.1479 16.6255C12.8339 15.514 13.5278 14.4904 14.6965 14.3965C16.8049 14.2269 18.924 14.158 21.0255 13.9265C21.9238 13.8257 22.3443 14.1566 22.7934 14.8441C25.768 19.3976 28.7835 23.9246 31.7855 28.4598C31.8955 28.6271 32.0132 28.7905 32.2287 29.0999V15.6497C31.4953 15.5649 30.795 15.4652 30.0892 15.4125C29.7042 15.385 29.6115 15.2101 29.655 14.8709C29.749 14.1445 30.3174 13.4825 31.0828 13.4252Z" fill="white"/>
</svg>
