<svg width="55" height="55" viewBox="0 0 55 55" fill="none" xmlns="http://www.w3.org/2000/svg">
<rect x="7" y="7" width="46" height="46" rx="8" fill="white" stroke="black" stroke-width="4"/>
<rect x="2" y="2" width="46" height="46" rx="8" fill="white" stroke="black" stroke-width="4"/>
<g clip-path="url(#clip0_108_237)">
<path d="M28.0167 9.76669C28.3 9.26669 28.0167 8.60003 27.4333 8.53336C23.0667 7.91669 18.6 9.00003 15.0333 11.6334C14.7167 11.8834 14.6167 12.35 14.8333 12.7167L19.85 21.4167C20.1667 21.9667 20.9667 21.9667 21.3 21.4167L28.0167 9.76669ZM40.5 18.8834C38.8666 14.7667 35.6333 11.45 31.5833 9.71669C31.2 9.55003 30.75 9.71669 30.5333 10.0834L25.5167 18.7667C25.2 19.3 25.6 20 26.25 20H39.7166C40.3 20 40.7166 19.4167 40.5 18.8834ZM40.6167 21.6667H30.2833C29.65 21.6667 29.2333 22.3667 29.5666 22.9167L36.6667 35.2334C36.95 35.7334 37.6666 35.8167 38.0333 35.3667C40.9333 31.7334 42.1667 26.9834 41.45 22.3834C41.4 21.9667 41.0333 21.6667 40.6167 21.6667ZM11.9667 14.65C9.08332 18.3 7.83332 23.0167 8.54998 27.6334C8.59998 28.0334 8.96665 28.3334 9.38332 28.3334H19.7167C20.35 28.3334 20.7667 27.6334 20.4333 27.0834L13.3333 14.7834C13.0333 14.2834 12.3166 14.2 11.9667 14.65ZM9.49998 31.1167C11.1333 35.2334 14.3667 38.55 18.4167 40.2834C18.8 40.45 19.25 40.2834 19.4667 39.9167L24.4833 31.2334C24.8 30.6834 24.4 29.9834 23.7667 29.9834H10.2833C9.69998 30 9.28332 30.5834 9.49998 31.1167ZM22.55 41.4834C26.9166 42.1 31.3833 41.0167 34.95 38.3834C35.2833 38.1334 35.3833 37.65 35.1667 37.2834L30.15 28.5834C29.8333 28.0334 29.0333 28.0334 28.7 28.5834L21.9667 40.2334C21.6833 40.7334 21.9833 41.4 22.55 41.4834Z" fill="black"/>
</g>
<defs>
<clipPath id="clip0_108_237">
<rect width="40" height="40" fill="white" transform="translate(5 5)"/>
</clipPath>
</defs>
</svg>
