<svg width="55" height="55" viewBox="0 0 55 55" fill="none" xmlns="http://www.w3.org/2000/svg">
<rect x="7" y="7" width="46" height="46" rx="8" fill="white" stroke="black" stroke-width="4"/>
<rect x="2" y="2" width="46" height="46" rx="8" fill="white" stroke="black" stroke-width="4"/>
<path d="M23.5579 6.69274C23.1195 6.67159 22.6779 6.68162 22.2298 6.72203C18.5224 7.05653 15.5603 9.6567 14.3489 13.0339C11.495 13.6281 9.06207 15.5067 7.78641 18.2617C6.22326 21.6389 6.99542 25.5016 9.3131 28.239C8.40042 31.0088 8.80792 34.0593 10.5533 36.5397C12.697 39.5829 16.4308 40.8444 19.9609 40.2051C21.9026 42.3804 24.7475 43.552 27.7701 43.278C31.4774 42.9435 34.4396 40.3432 35.651 36.9662C38.5049 36.372 40.9378 34.4919 42.2135 31.7383C43.7766 28.3613 43.0044 24.5017 40.6868 21.7644C41.6007 18.9938 41.1908 15.9416 39.4433 13.4603C37.2997 10.4172 33.5691 9.15562 30.039 9.79495C28.3852 7.94214 26.0765 6.81424 23.5579 6.69274ZM23.3756 9.18948C24.8682 9.24805 26.2556 9.78951 27.3828 10.6999C27.1943 10.7933 26.9969 10.8575 26.8131 10.9636L20.9472 14.349C19.9272 14.9373 19.2939 16.0222 19.2806 17.2005L19.1927 25.3972L17.067 24.1341C16.5603 23.8341 16.25 23.2869 16.25 22.6986V16.3086C16.25 12.7486 18.8459 9.57044 22.3893 9.21878C22.7216 9.18586 23.0508 9.17673 23.3756 9.18948ZM31.875 12.0931C33.9976 12.1057 36.0664 13.042 37.3632 14.8503C38.4514 16.366 38.8504 18.17 38.5774 19.9121C38.4021 19.7954 38.2472 19.6571 38.0631 19.5508L32.1972 16.1654C31.1772 15.5754 29.9231 15.5708 28.8964 16.1491L21.7545 20.1726L21.7838 17.6953C21.7905 17.107 22.1071 16.5678 22.6171 16.2728L28.151 13.0795C29.3072 12.412 30.6014 12.0856 31.875 12.0931ZM13.8053 15.7878C13.792 15.9972 13.75 16.2011 13.75 16.4128V23.1804C13.75 24.3587 14.3707 25.4515 15.3841 26.0515L22.4446 30.2279L20.2864 31.4388C19.7731 31.7272 19.146 31.7241 18.636 31.4291L13.0989 28.2324C10.0156 26.4524 8.56258 22.6119 10.0292 19.3685C10.7992 17.6678 12.1606 16.4227 13.8053 15.7878ZM30.5436 18.3464C30.8282 18.348 31.1121 18.4235 31.3671 18.571L36.901 21.7676C39.9843 23.5476 41.4406 27.3882 39.9739 30.6315C39.2038 32.3326 37.8399 33.5775 36.1946 34.2123C36.2079 34.0025 36.25 33.7994 36.25 33.5873V26.8164C36.25 25.6381 35.6292 24.5486 34.6158 23.9486L27.5618 19.7722L29.7167 18.5612C29.9734 18.4171 30.259 18.3447 30.5436 18.3464ZM25.0423 21.1882L28.3268 23.1348L28.2812 26.9466L24.9576 28.8151L21.6731 26.8653L21.7187 23.0534L25.0423 21.1882ZM30.804 24.6061L32.9329 25.8659C33.4396 26.1659 33.75 26.7131 33.75 27.3015V33.6914C33.75 37.2514 31.154 40.4296 27.6106 40.7813C25.7515 40.9654 23.9896 40.4087 22.6171 39.3002C22.8056 39.2068 23.003 39.1426 23.1868 39.0365L29.0494 35.6511C30.0694 35.0627 30.7028 33.9778 30.7161 32.7995L30.804 24.6061ZM28.2454 29.8308L28.2161 32.3047C28.2094 32.8931 27.8928 33.4322 27.3828 33.7272L21.8489 36.9206C18.7656 38.7006 14.7117 38.0431 12.6367 35.1498C11.5485 33.634 11.1495 31.83 11.4225 30.0879C11.5978 30.2046 11.7527 30.343 11.9368 30.4492L17.8027 33.8347C18.8227 34.4247 20.0768 34.4293 21.1035 33.8509L28.2454 29.8308Z" fill="black"/>
</svg>
