<svg width="55" height="55" viewBox="0 0 55 55" fill="none" xmlns="http://www.w3.org/2000/svg">
<rect x="7" y="7" width="46" height="46" rx="8" fill="white" stroke="black" stroke-width="4"/>
<rect x="2" y="2" width="46" height="46" rx="8" fill="white" stroke="black" stroke-width="4"/>
<g clip-path="url(#clip0_87_50)">
<path d="M29.4167 13.3L21.0833 10.3834C20.3833 10.1334 19.6167 10.1334 18.9167 10.3667L12.2667 12.6C10.9167 13.0667 10 14.3334 10 15.7667V35.5167C10 37.8667 12.35 39.4667 14.5333 38.6167L19.4167 36.7167C19.7833 36.5667 20.2 36.5667 20.5667 36.7L28.9 39.6167C29.6 39.8667 30.3667 39.8667 31.0667 39.6334L37.7167 37.4C39.0667 36.95 39.9833 35.6667 39.9833 34.2334V14.4834C39.9833 12.1334 37.6333 10.5334 35.45 11.3834L30.5667 13.2834C30.2 13.4167 29.8 13.4334 29.4167 13.3ZM30 36.4834L20 32.9667V13.5167L30 17.0334V36.4834Z" fill="black"/>
</g>
<defs>
<clipPath id="clip0_87_50">
<rect width="40" height="40" fill="white" transform="translate(5 5)"/>
</clipPath>
</defs>
</svg>
