<svg width="55" height="55" viewBox="0 0 55 55" fill="none" xmlns="http://www.w3.org/2000/svg">
<rect x="7" y="7" width="46" height="46" rx="8" fill="white" stroke="black" stroke-width="4"/>
<rect x="2" y="2" width="46" height="46" rx="8" fill="white" stroke="black" stroke-width="4"/>
<path d="M29.3418 17.0907C29.9861 15.3495 32.4489 15.3495 33.0932 17.0907L34.5387 20.9972C34.7413 21.5446 35.1729 21.9762 35.7204 22.1788L39.6268 23.6243C41.368 24.2686 41.368 26.7314 39.6268 27.3757L35.7204 28.8212C35.1729 29.0238 34.7413 29.4554 34.5387 30.0028L33.0932 33.9092C32.4489 35.6505 29.9861 35.6505 29.3418 33.9092L27.8963 30.0028C27.6937 29.4554 27.2621 29.0238 26.7147 28.8212L22.8083 27.3757C21.067 26.7314 21.067 24.2686 22.8083 23.6243L26.7147 22.1788C27.2621 21.9762 27.6937 21.5446 27.8963 20.9972L29.3418 17.0907Z" fill="black"/>
<path d="M16.8013 12.5345C17.1234 11.6639 18.3548 11.6639 18.677 12.5345L19.3997 14.4877C19.501 14.7614 19.7168 14.9772 19.9905 15.0785L21.9438 15.8013C22.8144 16.1234 22.8144 17.3548 21.9438 17.677L19.9905 18.3997C19.7168 18.501 19.501 18.7168 19.3997 18.9905L18.677 20.9438C18.3548 21.8144 17.1234 21.8144 16.8013 20.9438L16.0785 18.9905C15.9772 18.7168 15.7614 18.501 15.4877 18.3997L13.5345 17.677C12.6639 17.3548 12.6639 16.1234 13.5345 15.8013L15.4877 15.0785C15.7614 14.9772 15.9772 14.7614 16.0785 14.4877L16.8013 12.5345Z" fill="black"/>
<path d="M18.1489 30.0562C18.4711 29.1856 19.7025 29.1856 20.0246 30.0562L20.7474 32.0094C20.8487 32.2832 21.0645 32.499 21.3382 32.6003L23.2914 33.323C24.162 33.6452 24.162 34.8766 23.2914 35.1987L21.3382 35.9215C21.0645 36.0227 20.8487 36.2386 20.7474 36.5123L20.0246 38.4655C19.7025 39.3361 18.4711 39.3361 18.1489 38.4655L17.4262 36.5123C17.3249 36.2386 17.1091 36.0227 16.8354 35.9215L14.8822 35.1987C14.0115 34.8766 14.0115 33.6452 14.8822 33.323L16.8354 32.6003C17.1091 32.499 17.3249 32.2832 17.4262 32.0094L18.1489 30.0562Z" fill="black"/>
</svg>
